<svg xmlns="http://www.w3.org/2000/svg" width="1000" height="522" viewBox="0 0 1000 522" role="img" aria-labelledby="ttl-signal-d">
<title id="ttl-signal-d">Section 05 — GitHub signal: public repositories, stars, featured systems, and languages</title>
<desc>Section 05 — GitHub signal: public repositories, stars, featured systems, and languages</desc>
<defs><filter id="neu-signal-d" x="-25%" y="-25%" width="150%" height="150%"><feDropShadow dx="5" dy="6" stdDeviation="7" flood-color="#AEB5BF" flood-opacity=".95"/><feDropShadow dx="-4" dy="-4" stdDeviation="5" flood-color="#FFFFFF" flood-opacity=".95"/></filter><filter id="neuS-signal-d" x="-30%" y="-30%" width="160%" height="160%"><feDropShadow dx="2" dy="2.5" stdDeviation="3" flood-color="#AEB5BF" flood-opacity=".9"/><feDropShadow dx="-1.5" dy="-1.5" stdDeviation="2" flood-color="#FFFFFF" flood-opacity=".95"/></filter><linearGradient id="edge-signal-d" x1="0" y1="0" x2=".7" y2="1"><stop stop-color="#FFFFFF" stop-opacity="1"/><stop offset=".45" stop-color="#FFFFFF" stop-opacity=".25"/><stop offset="1" stop-color="#AEB5BF" stop-opacity=".55"/></linearGradient><linearGradient id="inset-signal-d" x1="0" y1="0" x2=".3" y2="1"><stop stop-color="#AEB5BF" stop-opacity=".55"/><stop offset=".6" stop-color="#AEB5BF" stop-opacity="0"/></linearGradient><pattern id="dots-signal-d" width="8" height="8" patternUnits="userSpaceOnUse"><circle cx="4" cy="4" r="1.05" fill="#8A919B" fill-opacity=".45"/></pattern><pattern id="hot-signal-d" width="8" height="8" patternUnits="userSpaceOnUse"><circle cx="4" cy="4" r="1.35" fill="#14161A"/></pattern><radialGradient id="spotg-signal-d"><stop stop-color="#fff" stop-opacity="1"/><stop offset=".5" stop-color="#fff" stop-opacity=".45"/><stop offset="1" stop-color="#fff" stop-opacity="0"/></radialGradient><mask id="spot-signal-d"><rect width="1000" height="522" fill="#000"/><circle cy="261" r="391.5" fill="url(#spotg-signal-d)"><animate attributeName="cx" values="-195.75;1195.75;-195.75" dur="14s" repeatCount="indefinite"/></circle></mask><radialGradient id="vig-signal-d" cx=".5" cy=".5" r=".8"><stop offset=".7" stop-color="#DADEE4" stop-opacity="0"/><stop offset="1" stop-color="#DADEE4" stop-opacity=".55"/></radialGradient><clipPath id="clip-signal-d"><rect width="1000" height="522" rx="26"/></clipPath></defs>
<g clip-path="url(#clip-signal-d)">
<rect width="1000" height="522" fill="#E7EAEE"/>
<rect width="1000" height="522" fill="url(#dots-signal-d)"/><rect width="1000" height="522" fill="url(#hot-signal-d)" mask="url(#spot-signal-d)" opacity=".4"/><rect width="1000" height="522" fill="url(#vig-signal-d)"/>
<rect x="28" y="28" width="944" height="104" rx="24" fill="#EDEFF3" filter="url(#neu-signal-d)"/><rect x="28.75" y="28.75" width="942.5" height="102.5" rx="24" fill="none" stroke="url(#edge-signal-d)" stroke-width="1.5"/><rect x="48" y="52" width="56" height="56" rx="16" fill="#DCE0E6"/><rect x="48" y="52" width="56" height="56" rx="16" fill="url(#inset-signal-d)"/><rect x="48.5" y="52.5" width="55" height="55" rx="16" fill="none" stroke="#CBD1D9" stroke-opacity=".8"/><text x="76" y="87.28" fill="#14161A" font-family="ui-sans-serif,system-ui,-apple-system,'Segoe UI',Helvetica,Arial,sans-serif" font-size="20" font-weight="700" letter-spacing="0.5" text-anchor="middle">05</text><g><animateTransform attributeName="transform" type="rotate" from="0 76 80" to="360 76 80" dur="9s" repeatCount="indefinite"/><circle cx="76" cy="80" r="23.52" fill="none" stroke="#14161A" stroke-opacity=".55" stroke-width="1.6" stroke-dasharray="16.46 94.08" stroke-linecap="round"/></g><text x="124" y="60" fill="#666D76" font-family="ui-monospace,SFMono-Regular,Menlo,Consolas,'Liberation Mono',monospace" font-size="11" font-weight="600" letter-spacing="1.8">SECTION 05 // PUBLIC PORTFOLIO SNAPSHOT</text><text x="124" y="102" fill="#14161A" font-family="ui-sans-serif,system-ui,-apple-system,'Segoe UI',Helvetica,Arial,sans-serif" font-size="30" font-weight="600" letter-spacing="-0.4">GitHub signal</text><rect x="829.4" y="64" width="122.6" height="32" rx="16" fill="#F4F6F8" filter="url(#neuS-signal-d)"/><rect x="829.9" y="64.5" width="121.6" height="31" rx="16" fill="none" stroke="#14161A" stroke-opacity=".3"/><circle cx="849.24" cy="80" r="3.4" fill="#14161A"><animate attributeName="r" values="2.6;4.4;2.6" dur="2.4s" repeatCount="indefinite"/></circle><circle cx="849.24" cy="80" r="3.4" fill="none" stroke="#14161A" stroke-opacity=".5"><animate attributeName="r" values="3.4;9" dur="2.4s" repeatCount="indefinite"/><animate attributeName="stroke-opacity" values=".5;0" dur="2.4s" repeatCount="indefinite"/></circle><text x="865.24" y="84.14" fill="#14161A" font-family="ui-monospace,SFMono-Regular,Menlo,Consolas,'Liberation Mono',monospace" font-size="11.5" font-weight="700" letter-spacing="0.7">8 REPOS</text>
<rect x="28" y="150" width="222.5" height="102" rx="18" fill="#EDEFF3" filter="url(#neu-signal-d)"/><rect x="28.75" y="150.75" width="221" height="100.5" rx="18" fill="none" stroke="url(#edge-signal-d)" stroke-width="1.5"/><text x="139.25" y="198.96" fill="#14161A" font-family="ui-sans-serif,system-ui,-apple-system,'Segoe UI',Helvetica,Arial,sans-serif" font-size="30" font-weight="600" letter-spacing="-0.5" text-anchor="middle">8</text><text x="139.25" y="226.5" fill="#666D76" font-family="ui-monospace,SFMono-Regular,Menlo,Consolas,'Liberation Mono',monospace" font-size="9.5" font-weight="700" letter-spacing="1.6" text-anchor="middle">PUBLIC REPOS</text><rect x="101.43" y="238" width="75.65" height="3" rx="1.5" fill="#DCE0E6"/><rect x="101.43" y="238" width="75.65" height="3" rx="1.5" fill="#14161A"><animate attributeName="width" values="0;75.65" dur="1.4s" begin="0.00s" fill="freeze"/></rect><rect x="268.5" y="150" width="222.5" height="102" rx="18" fill="#EDEFF3" filter="url(#neu-signal-d)"/><rect x="269.25" y="150.75" width="221" height="100.5" rx="18" fill="none" stroke="url(#edge-signal-d)" stroke-width="1.5"/><text x="379.75" y="198.96" fill="#14161A" font-family="ui-sans-serif,system-ui,-apple-system,'Segoe UI',Helvetica,Arial,sans-serif" font-size="30" font-weight="600" letter-spacing="-0.5" text-anchor="middle">7</text><text x="379.75" y="226.5" fill="#666D76" font-family="ui-monospace,SFMono-Regular,Menlo,Consolas,'Liberation Mono',monospace" font-size="9.5" font-weight="700" letter-spacing="1.6" text-anchor="middle">PORTFOLIO REPOS</text><rect x="341.93" y="238" width="75.65" height="3" rx="1.5" fill="#DCE0E6"/><rect x="341.93" y="238" width="75.65" height="3" rx="1.5" fill="#14161A"><animate attributeName="width" values="0;75.65" dur="1.4s" begin="0.16s" fill="freeze"/></rect><rect x="509" y="150" width="222.5" height="102" rx="18" fill="#EDEFF3" filter="url(#neu-signal-d)"/><rect x="509.75" y="150.75" width="221" height="100.5" rx="18" fill="none" stroke="url(#edge-signal-d)" stroke-width="1.5"/><text x="620.25" y="198.96" fill="#14161A" font-family="ui-sans-serif,system-ui,-apple-system,'Segoe UI',Helvetica,Arial,sans-serif" font-size="30" font-weight="600" letter-spacing="-0.5" text-anchor="middle">8</text><text x="620.25" y="226.5" fill="#666D76" font-family="ui-monospace,SFMono-Regular,Menlo,Consolas,'Liberation Mono',monospace" font-size="9.5" font-weight="700" letter-spacing="1.6" text-anchor="middle">TOTAL STARS</text><rect x="582.42" y="238" width="75.65" height="3" rx="1.5" fill="#DCE0E6"/><rect x="582.42" y="238" width="75.65" height="3" rx="1.5" fill="#14161A"><animate attributeName="width" values="0;75.65" dur="1.4s" begin="0.32s" fill="freeze"/></rect><rect x="749.5" y="150" width="222.5" height="102" rx="18" fill="#EDEFF3" filter="url(#neu-signal-d)"/><rect x="750.25" y="150.75" width="221" height="100.5" rx="18" fill="none" stroke="url(#edge-signal-d)" stroke-width="1.5"/><text x="860.75" y="198.96" fill="#14161A" font-family="ui-sans-serif,system-ui,-apple-system,'Segoe UI',Helvetica,Arial,sans-serif" font-size="30" font-weight="600" letter-spacing="-0.5" text-anchor="middle">2</text><text x="860.75" y="226.5" fill="#666D76" font-family="ui-monospace,SFMono-Regular,Menlo,Consolas,'Liberation Mono',monospace" font-size="9.5" font-weight="700" letter-spacing="1.6" text-anchor="middle">FEATURED SYSTEMS</text><rect x="822.93" y="238" width="75.65" height="3" rx="1.5" fill="#DCE0E6"/><rect x="822.93" y="238" width="75.65" height="3" rx="1.5" fill="#14161A"><animate attributeName="width" values="0;75.65" dur="1.4s" begin="0.48s" fill="freeze"/></rect>
<rect x="28" y="270" width="944" height="224" rx="20" fill="#EDEFF3" filter="url(#neu-signal-d)"/><rect x="28.75" y="270.75" width="942.5" height="222.5" rx="20" fill="none" stroke="url(#edge-signal-d)" stroke-width="1.5"/><text x="50" y="302" fill="#666D76" font-family="ui-monospace,SFMono-Regular,Menlo,Consolas,'Liberation Mono',monospace" font-size="10" font-weight="700" letter-spacing="1.8">TOP LANGUAGES BY REPOSITORY</text><text x="50" y="331.84" fill="#14161A" font-family="ui-monospace,SFMono-Regular,Menlo,Consolas,'Liberation Mono',monospace" font-size="12" font-weight="500">JavaScript</text><rect x="202" y="321.6" width="700" height="10" rx="5" fill="#DCE0E6"/><rect x="202" y="321.6" width="700" height="10" rx="5" fill="url(#inset-signal-d)"/><rect x="202.5" y="322.1" width="699" height="9" rx="5" fill="none" stroke="#CBD1D9" stroke-opacity=".8"/><rect x="202" y="321.6" width="700" height="10" rx="5" fill="#14161A" opacity=".9"><animate attributeName="width" values="0;700" dur="1.5s" begin="0.00s" fill="freeze"/></rect><text x="916" y="331.84" fill="#14161A" font-family="ui-monospace,SFMono-Regular,Menlo,Consolas,'Liberation Mono',monospace" font-size="12" font-weight="700">3</text><text x="50" y="363.84" fill="#14161A" font-family="ui-monospace,SFMono-Regular,Menlo,Consolas,'Liberation Mono',monospace" font-size="12" font-weight="500">Java</text><rect x="202" y="353.6" width="700" height="10" rx="5" fill="#DCE0E6"/><rect x="202" y="353.6" width="700" height="10" rx="5" fill="url(#inset-signal-d)"/><rect x="202.5" y="354.1" width="699" height="9" rx="5" fill="none" stroke="#CBD1D9" stroke-opacity=".8"/><rect x="202" y="353.6" width="233.33" height="10" rx="5" fill="#14161A" opacity=".9"><animate attributeName="width" values="0;233.33" dur="1.5s" begin="0.14s" fill="freeze"/></rect><text x="916" y="363.84" fill="#14161A" font-family="ui-monospace,SFMono-Regular,Menlo,Consolas,'Liberation Mono',monospace" font-size="12" font-weight="700">1</text><text x="50" y="395.84" fill="#14161A" font-family="ui-monospace,SFMono-Regular,Menlo,Consolas,'Liberation Mono',monospace" font-size="12" font-weight="500">Jupyter Notebook</text><rect x="202" y="385.6" width="700" height="10" rx="5" fill="#DCE0E6"/><rect x="202" y="385.6" width="700" height="10" rx="5" fill="url(#inset-signal-d)"/><rect x="202.5" y="386.1" width="699" height="9" rx="5" fill="none" stroke="#CBD1D9" stroke-opacity=".8"/><rect x="202" y="385.6" width="233.33" height="10" rx="5" fill="#14161A" opacity=".9"><animate attributeName="width" values="0;233.33" dur="1.5s" begin="0.28s" fill="freeze"/></rect><text x="916" y="395.84" fill="#14161A" font-family="ui-monospace,SFMono-Regular,Menlo,Consolas,'Liberation Mono',monospace" font-size="12" font-weight="700">1</text><text x="50" y="427.84" fill="#14161A" font-family="ui-monospace,SFMono-Regular,Menlo,Consolas,'Liberation Mono',monospace" font-size="12" font-weight="500">Python</text><rect x="202" y="417.6" width="700" height="10" rx="5" fill="#DCE0E6"/><rect x="202" y="417.6" width="700" height="10" rx="5" fill="url(#inset-signal-d)"/><rect x="202.5" y="418.1" width="699" height="9" rx="5" fill="none" stroke="#CBD1D9" stroke-opacity=".8"/><rect x="202" y="417.6" width="233.33" height="10" rx="5" fill="#14161A" opacity=".9"><animate attributeName="width" values="0;233.33" dur="1.5s" begin="0.42s" fill="freeze"/></rect><text x="916" y="427.84" fill="#14161A" font-family="ui-monospace,SFMono-Regular,Menlo,Consolas,'Liberation Mono',monospace" font-size="12" font-weight="700">1</text><text x="50" y="459.84" fill="#14161A" font-family="ui-monospace,SFMono-Regular,Menlo,Consolas,'Liberation Mono',monospace" font-size="12" font-weight="500">TypeScript</text><rect x="202" y="449.6" width="700" height="10" rx="5" fill="#DCE0E6"/><rect x="202" y="449.6" width="700" height="10" rx="5" fill="url(#inset-signal-d)"/><rect x="202.5" y="450.1" width="699" height="9" rx="5" fill="none" stroke="#CBD1D9" stroke-opacity=".8"/><rect x="202" y="449.6" width="233.33" height="10" rx="5" fill="#14161A" opacity=".9"><animate attributeName="width" values="0;233.33" dur="1.5s" begin="0.56s" fill="freeze"/></rect><text x="916" y="459.84" fill="#14161A" font-family="ui-monospace,SFMono-Regular,Menlo,Consolas,'Liberation Mono',monospace" font-size="12" font-weight="700">1</text>
</g>
<rect x=".75" y=".75" width="998.5" height="520.5" rx="26" fill="none" stroke="#CBD1D9" stroke-width="1.5"/>
<rect x=".75" y=".75" width="998.5" height="520.5" rx="26" fill="none" stroke="#666D76" stroke-width="1.5" stroke-linecap="round" stroke-opacity=".75" stroke-dasharray="419.07 2993.36"><animate attributeName="stroke-dashoffset" values="0;-2993.36" dur="11s" repeatCount="indefinite"/></rect>
</svg>